# xmcd
#
# Track frame offsets:
#	150
#	20585
#	38550
#	56545
#	69365
#	91472
#	109802
#	130077
#	151005
#	172305
#	197217
#	226982
#	252755
#	275410
#	291970
#	309382
#	339137
#
# Disc length: 4714 seconds
#
# Revision: 1
# Processed by: cddbd v1.5.1PL0 Copyright (c) Steve Scherf et al.
# Submitted via: CDex 1.50Beta5
#
DISCID=e7126811
DTITLE=さまざまなアーティスト - おきなわのうた
DYEAR=1900
DGENRE=
TTITLE0=TINGARA/夜間飛行
TTITLE1=Sons of Ailana/Mimura Bushi
TTITLE2=TAKUJI a.k.a GEETEK/てぃんざぐぬ花
TTITLE3=細野晴臣/ATTI
TTITLE4=アコーステイックM/ダイヤモンド
TTITLE5=アコーステック・パーシャ/まるまぶんさん
TTITLE6=島さちこ/紅花の歌
TTITLE7=加治工勇/イダ舟
TTITLE8=パーシャクラブ/ファムレウタ
TTITLE9=DIAMANTES/FESTEJANDO
TTITLE10=下地勇/我たちが産まり島
TTITLE11=池田卓/島の人よ
TTITLE12=よなは徹/汗水節
TTITLE13=内里美香/恋尽ぬ花
TTITLE14=神谷千尋/美童しまうた
TTITLE15=仲田まさえ/光の詩
TTITLE16=bleur/United Soul Anthem
EXTD=
EXTT0=
EXTT1=
EXTT2=
EXTT3=
EXTT4=
EXTT5=
EXTT6=
EXTT7=
EXTT8=
EXTT9=
EXTT10=
EXTT11=
EXTT12=
EXTT13=
EXTT14=
EXTT15=
EXTT16=
PLAYORDER=
